<svg width="12" height="12" viewBox="0 0 12 12" fill="none" xmlns="http://www.w3.org/2000/svg">
<path d="M5.33322 11.3354C5.14434 11.3354 4.986 11.2715 4.85822 11.1437C4.73045 11.0159 4.66656 10.8576 4.66656 10.6687V6.6687L0.799891 1.73537C0.633224 1.51315 0.608224 1.27981 0.724891 1.03537C0.841558 0.790923 1.04434 0.668701 1.33322 0.668701H10.6666C10.9554 0.668701 11.1582 0.790923 11.2749 1.03537C11.3916 1.27981 11.3666 1.51315 11.1999 1.73537L7.33322 6.6687V10.6687C7.33322 10.8576 7.26934 11.0159 7.14156 11.1437C7.01378 11.2715 6.85545 11.3354 6.66656 11.3354H5.33322ZM5.99989 6.20203L9.29989 2.00203H2.69989L5.99989 6.20203Z" fill="#41558D"/>
</svg>
