<svg width="36" height="36" viewBox="0 0 36 36" fill="none" xmlns="http://www.w3.org/2000/svg">
<rect x="0.5" y="0.5" width="35" height="35" rx="17.5" stroke="#D3DBEC"/>
<mask id="mask0_10_3480" style="mask-type:alpha" maskUnits="userSpaceOnUse" x="6" y="6" width="24" height="24">
<rect x="6" y="6" width="24" height="24" fill="#3A3A3A"/>
</mask>
<g mask="url(#mask0_10_3480)">
<path d="M11.25 24.8846C11.0375 24.8846 10.8594 24.8127 10.7156 24.6689C10.5719 24.5251 10.5 24.3469 10.5 24.1343C10.5 23.9217 10.5719 23.7436 10.7156 23.6C10.8594 23.4564 11.0375 23.3846 11.25 23.3846H12.3077V15.9231C12.3077 14.5782 12.7228 13.3891 13.5529 12.3558C14.383 11.3224 15.4487 10.6615 16.75 10.3731V9.75C16.75 9.40278 16.8714 9.10765 17.1142 8.8646C17.3571 8.62153 17.6519 8.5 17.9988 8.5C18.3457 8.5 18.641 8.62153 18.8846 8.8646C19.1282 9.10765 19.2499 9.40278 19.2499 9.75V10.3731C20.5512 10.6615 21.6169 11.3224 22.4471 12.3558C23.2772 13.3891 23.6922 14.5782 23.6922 15.9231V23.3846H24.75C24.9625 23.3846 25.1406 23.4565 25.2843 23.6003C25.4281 23.7441 25.5 23.9223 25.5 24.1349C25.5 24.3475 25.4281 24.5256 25.2843 24.6692C25.1406 24.8128 24.9625 24.8846 24.75 24.8846H11.25ZM17.9983 27.6923C17.5007 27.6923 17.0753 27.5153 16.7221 27.1613C16.3689 26.8073 16.1923 26.3817 16.1923 25.8846H19.8076C19.8076 26.3833 19.6305 26.8093 19.2761 27.1625C18.9218 27.5157 18.4959 27.6923 17.9983 27.6923ZM13.8076 23.3846H22.1923V15.9231C22.1923 14.7654 21.783 13.7772 20.9644 12.9586C20.1458 12.14 19.1577 11.7307 18 11.7307C16.8423 11.7307 15.8541 12.14 15.0355 12.9586C14.2169 13.7772 13.8076 14.7654 13.8076 15.9231V23.3846Z" fill="#2D2D2D"/>
</g>
</svg>
